# xmcd
#
# Track frame offsets: 
#        150
#        14359
#        33118
#        51781
#        70364
#        89731
#        105615
#        122134
#        140984
#        158292
#        175090
#        201941
#
# Disc length: 4296 seconds
#
# Revision: 0
# Processed by: cddbd v1.5.2PL0 Copyright (c) Steve Scherf et al.
# Submitted via: ExactAudioCopyFreeDBPlugin 1.0
#
DISCID=a410c60c
DTITLE=P.L.A.N. - Piosenki samotnego lićvina. Źnič nadziei
DYEAR=2006
DGENRE=Blues
TTITLE0=Гоман, гоман
TTITLE1=Зьніч надзеі
TTITLE2=Шынкарачка
TTITLE3=Анна-Мар'я
TTITLE4=Туман бацюхна
TTITLE5=Успамін пра будучыню
TTITLE6=Люстэрка лёсу
TTITLE7=Колеры восені
TTITLE8=Русалчын вэлюм
TTITLE9=Шэра-ружовыя сны
TTITLE10=Выправа
TTITLE11=Video
EXTD=
EXTT0=
EXTT1=
EXTT2=
EXTT3=
EXTT4=
EXTT5=
EXTT6=
EXTT7=
EXTT8=
EXTT9=
EXTT10=
EXTT11=
PLAYORDER=
